<svg width="182" height="44" viewBox="0 0 182 44" fill="none" xmlns="http://www.w3.org/2000/svg">
<path d="M67.0595 3.98438H181.262V42.8264H52.7842L67.0595 3.98438Z" fill="black"/>
<path d="M85.8723 3.98438H-0.000747681V42.8264H96.6064L85.8723 3.98438Z" fill="#EAEAEA"/>
<path d="M5.80794 36V11.7984H16.3551V15.2046H10.7379V21.6284H15.0703V25.0645H10.7379V32.6536H16.4148V36H5.80794ZM24.2871 36.3287C22.7932 36.3287 21.5482 36.0598 20.5523 35.5219C19.5563 34.9642 18.7994 34.1376 18.2815 33.042C17.7835 31.9266 17.4947 30.5123 17.415 28.7993L21.6578 28.0822C21.6976 29.0781 21.7972 29.9147 21.9566 30.592C22.1358 31.2493 22.3948 31.7473 22.7334 32.0859C23.092 32.4046 23.5302 32.564 24.0481 32.564C24.6855 32.564 25.1137 32.3648 25.3328 31.9664C25.5719 31.568 25.6914 31.1099 25.6914 30.592C25.6914 29.5761 25.4424 28.7296 24.9444 28.0523C24.4664 27.3551 23.829 26.658 23.0322 25.9608L20.5224 23.7797C19.6261 23.0228 18.889 22.1662 18.3114 21.2101C17.7537 20.254 17.4748 19.0788 17.4748 17.6845C17.4748 15.6926 18.0525 14.1688 19.2078 13.1131C20.383 12.0374 21.9865 11.4996 24.0182 11.4996C25.2333 11.4996 26.2292 11.6988 27.006 12.0972C27.7829 12.4956 28.3805 13.0334 28.7988 13.7106C29.237 14.368 29.5358 15.095 29.6951 15.8918C29.8744 16.6686 29.9839 17.4454 30.0238 18.2223L25.8109 18.8497C25.7711 18.1127 25.7014 17.4654 25.6018 16.9076C25.5221 16.3499 25.3428 15.9117 25.0639 15.593C24.805 15.2743 24.4066 15.1149 23.8688 15.1149C23.2912 15.1149 22.8629 15.334 22.584 15.7722C22.3052 16.1905 22.1657 16.6586 22.1657 17.1765C22.1657 18.0331 22.355 18.7402 22.7334 19.2979C23.1318 19.8357 23.6696 20.4034 24.3469 21.001L26.7969 23.1522C27.8128 24.0287 28.6792 25.0346 29.3963 26.17C30.1333 27.2854 30.5018 28.6698 30.5018 30.3231C30.5018 31.4585 30.2429 32.4843 29.725 33.4006C29.2071 34.3168 28.4801 35.0339 27.5439 35.5518C26.6276 36.0697 25.542 36.3287 24.2871 36.3287ZM34.4722 36V15.4735H30.7374V11.7984H43.1071V15.4735H39.432V36H34.4722ZM41.8979 36L46.5888 11.7984H52.0566L56.7177 36H52.1462L51.2798 30.6816H47.4553L46.5291 36H41.8979ZM47.9035 27.6639H50.8017L49.3377 17.8936L47.9035 27.6639ZM59.2317 36V15.4735H55.4968V11.7984H67.8665V15.4735H64.1915V36H59.2317ZM69.1656 36V11.7984H79.7127V15.2046H74.0955V21.6284H78.4279V25.0645H74.0955V32.6536H79.7724V36H69.1656Z" fill="#3C3C3C"/>
<path d="M107.992 36.3585C106.159 36.3585 104.705 36.0299 103.63 35.3726C102.574 34.6953 101.827 33.7591 101.389 32.564C100.951 31.3489 100.732 29.9247 100.732 28.2913V19.5668C100.732 17.8936 100.951 16.4595 101.389 15.2643C101.827 14.0493 102.574 13.1131 103.63 12.4557C104.705 11.7984 106.159 11.4697 107.992 11.4697C109.785 11.4697 111.179 11.7685 112.175 12.3661C113.191 12.9437 113.908 13.7604 114.326 14.8161C114.745 15.8718 114.954 17.0869 114.954 18.4613V20.5528H109.725V18.1326C109.725 17.6546 109.695 17.1965 109.635 16.7582C109.595 16.32 109.456 15.9615 109.217 15.6826C108.978 15.3838 108.57 15.2344 107.992 15.2344C107.434 15.2344 107.016 15.3838 106.737 15.6826C106.478 15.9814 106.309 16.3599 106.229 16.818C106.169 17.2562 106.14 17.7243 106.14 18.2223V29.606C106.14 30.1438 106.179 30.6418 106.259 31.0999C106.359 31.5381 106.538 31.8967 106.797 32.1756C107.076 32.4345 107.474 32.564 107.992 32.564C108.55 32.564 108.948 32.4245 109.187 32.1457C109.426 31.8469 109.576 31.4684 109.635 31.0103C109.695 30.5522 109.725 30.0841 109.725 29.606V27.0663H114.954V29.1578C114.954 30.5322 114.745 31.7672 114.326 32.8628C113.928 33.9384 113.221 34.7949 112.205 35.4323C111.209 36.0498 109.805 36.3585 107.992 36.3585ZM117 36V11.7984H123.663C125.296 11.7984 126.71 11.9777 127.905 12.3362C129.1 12.6948 130.027 13.3421 130.684 14.2783C131.361 15.1946 131.7 16.4993 131.7 18.1924C131.7 19.1884 131.62 20.0748 131.461 20.8516C131.302 21.6284 131.003 22.3057 130.565 22.8833C130.146 23.4411 129.539 23.9092 128.742 24.2876L132.058 36H126.531L123.872 25.1541H122.348V36H117ZM122.348 22.0766H123.842C124.599 22.0766 125.186 21.9471 125.605 21.6882C126.023 21.4093 126.312 21.0209 126.471 20.5229C126.65 20.005 126.74 19.3875 126.74 18.6705C126.74 17.6347 126.551 16.828 126.172 16.2503C125.794 15.6727 125.097 15.3838 124.081 15.3838H122.348V22.0766ZM132.853 36L137.425 11.7984H143.52L148.032 36H143.102L142.295 30.8908H138.74L137.903 36H132.853ZM139.218 27.6938H141.787L140.502 18.2522L139.218 27.6938ZM149.579 36V11.7984H160.036V15.4137H154.927V21.5089H159.379V25.2437H154.927V36H149.579ZM163.819 36V15.7722H160.174V11.7984H172.812V15.7722H169.197V36H163.819Z" fill="white"/>
</svg>
