<svg width="100" height="100" viewBox="0 0 100 100" fill="none" xmlns="http://www.w3.org/2000/svg">
<path d="M45.8357 70.8359H54.169V45.8359H45.8357V70.8359ZM50.0024 37.5026C51.1829 37.5026 52.1725 37.1033 52.9711 36.3047C53.7697 35.5061 54.169 34.5165 54.169 33.3359C54.169 32.1554 53.7697 31.1658 52.9711 30.3672C52.1725 29.5686 51.1829 29.1693 50.0024 29.1693C48.8218 29.1693 47.8322 29.5686 47.0336 30.3672C46.235 31.1658 45.8357 32.1554 45.8357 33.3359C45.8357 34.5165 46.235 35.5061 47.0336 36.3047C47.8322 37.1033 48.8218 37.5026 50.0024 37.5026ZM50.0024 91.6693C44.2385 91.6693 38.8218 90.5755 33.7524 88.388C28.6829 86.2005 24.2732 83.2318 20.5232 79.4818C16.7732 75.7318 13.8044 71.3221 11.6169 66.2526C9.42944 61.1832 8.33569 55.7665 8.33569 50.0026C8.33569 44.2387 9.42944 38.8221 11.6169 33.7526C13.8044 28.6832 16.7732 24.2734 20.5232 20.5234C24.2732 16.7734 28.6829 13.8047 33.7524 11.6172C38.8218 9.42969 44.2385 8.33594 50.0024 8.33594C55.7663 8.33594 61.1829 9.42969 66.2524 11.6172C71.3218 13.8047 75.7315 16.7734 79.4815 20.5234C83.2315 24.2734 86.2003 28.6832 88.3878 33.7526C90.5753 38.8221 91.669 44.2387 91.669 50.0026C91.669 55.7665 90.5753 61.1832 88.3878 66.2526C86.2003 71.3221 83.2315 75.7318 79.4815 79.4818C75.7315 83.2318 71.3218 86.2005 66.2524 88.388C61.1829 90.5755 55.7663 91.6693 50.0024 91.6693ZM50.0024 83.3359C59.3079 83.3359 67.1899 80.1068 73.6482 73.6484C80.1065 67.1901 83.3357 59.3082 83.3357 50.0026C83.3357 40.697 80.1065 32.8151 73.6482 26.3568C67.1899 19.8984 59.3079 16.6693 50.0024 16.6693C40.6968 16.6693 32.8149 19.8984 26.3565 26.3568C19.8982 32.8151 16.669 40.697 16.669 50.0026C16.669 59.3082 19.8982 67.1901 26.3565 73.6484C32.8149 80.1068 40.6968 83.3359 50.0024 83.3359Z" fill="#1F1F1F"/>
</svg>
